<svg xmlns="http://www.w3.org/2000/svg" xmlns:xlink="http://www.w3.org/1999/xlink" version="1.1" x="0px" y="0px"
    viewBox="0 0 100 125" enableBackground="new 0 0 100 100" xml:space="preserve">
    <g>
        <path fill="skyblue"
            d="M39.051,77.903l3.574-4.014c0.15-0.168,0.365-0.268,0.592-0.271c0.449-0.012,0.824,0.346,0.834,0.797l0.119,5.373   c0.016,0.742-0.248,1.461-0.74,2.014c-1.078,1.211-2.932,1.316-4.141,0.24C38.083,80.966,37.975,79.112,39.051,77.903z" />
    </g>
    <g>
        <path fill="skyblue"
            d="M43.831,64.921l3.574-4.013c0.15-0.169,0.365-0.269,0.592-0.273c0.449-0.01,0.824,0.348,0.834,0.798l0.119,5.373   c0.018,0.742-0.248,1.461-0.742,2.014c-1.076,1.209-2.928,1.316-4.139,0.24C42.862,67.983,42.754,66.13,43.831,64.921z" />
    </g>
    <g>
        <path fill="skyblue"
            d="M49.125,74.147l3.576-4.014c0.15-0.168,0.365-0.268,0.59-0.271c0.451-0.012,0.824,0.346,0.834,0.797l0.119,5.373   c0.018,0.74-0.248,1.461-0.742,2.016c-1.074,1.207-2.928,1.314-4.136,0.238C48.157,77.21,48.049,75.356,49.125,74.147z" />
    </g>
    <g>
        <path fill="skyblue"
            d="M53.904,61.165l3.576-4.014c0.15-0.168,0.365-0.268,0.592-0.273c0.449-0.01,0.822,0.348,0.834,0.799l0.119,5.373   c0.014,0.741-0.25,1.461-0.742,2.016c-1.076,1.207-2.93,1.314-4.139,0.238C52.936,64.227,52.83,62.374,53.904,61.165z" />
    </g>
    <g>
        <path fill="skyblue"
            d="M38.936,70.397l-0.119-5.374c-0.01-0.452-0.385-0.808-0.836-0.798c-0.225,0.005-0.439,0.104-0.59,0.273l-3.576,4.012   c-1.076,1.209-0.969,3.062,0.24,4.139c1.209,1.078,3.062,0.971,4.141-0.238C38.688,71.856,38.952,71.138,38.936,70.397z" />
    </g>
    <g>
        <path fill="skyblue"
            d="M43.715,57.413l-0.119-5.373c-0.01-0.451-0.385-0.808-0.834-0.798c-0.227,0.006-0.441,0.104-0.592,0.274l-3.574,4.013   c-1.076,1.209-0.969,3.062,0.238,4.139c1.211,1.076,3.062,0.97,4.139-0.239C43.467,58.875,43.733,58.155,43.715,57.413z" />
    </g>
    <g>
        <path fill="#ffffff"
            d="M31.387,60.689c-5.822-0.734-10.105-5.816-9.842-11.679c0.279-6.214,5.543-11.024,11.756-10.745   c0.076-0.555,0.176-1.104,0.297-1.65c2.387-10.693,12.99-17.428,23.687-15.041c10.693,2.387,17.428,12.991,15.041,23.686   c0.172-0.012,0.346-0.018,0.52-0.018c4.291,0,7.768,3.478,7.768,7.769c0,4.289-3.477,7.768-7.768,7.768h-8.514v3.143h8.514   c6.025,0,10.91-4.885,10.91-10.91c0-4.854-3.205-9.124-7.865-10.478c0.881-12.664-8.672-23.643-21.336-24.523   c-11.08-0.771-21.125,6.492-23.867,17.256c-7.869,1.164-13.307,8.488-12.141,16.358c0.967,6.539,6.262,11.582,12.84,12.228V60.689z   " />
    </g>
</svg>