<svg xmlns="http://www.w3.org/2000/svg" data-name="Layer 1" viewBox="0 0 100 125" x="0px" y="0px">
    <title>WEATHER(GLYPH)</title>
    <path fill="#fff"
        d="M78.69,40.94A18.77,18.77,0,0,0,46,29.48a15.83,15.83,0,0,0-17.41,8.65,11.78,11.78,0,1,0-4.31,22.73H77.5a10,10,0,0,0,1.2-19.93Z" />
    <path fill="skyblue" d="M31,65.63a2,2,0,0,0-2.77.55l-5,7.45a2,2,0,1,0,3.32,2.23l5-7.45A2,2,0,0,0,31,65.63Z" />
    <path fill="skyblue" d="M42.3,65.63a2,2,0,0,0-2.77.55l-5,7.45a2,2,0,1,0,3.32,2.23l5-7.45A2,2,0,0,0,42.3,65.63Z" />
    <path fill="skyblue" d="M53.61,65.63a2,2,0,0,0-2.77.55l-5,7.45a2,2,0,1,0,3.32,2.23l5-7.45A2,2,0,0,0,53.61,65.63Z" />
    <path fill="skyblue" d="M64.93,65.63a2,2,0,0,0-2.77.55l-5,7.45a2,2,0,1,0,3.32,2.23l5-7.45A2,2,0,0,0,64.93,65.63Z" />
    <path fill="skyblue"  d="M76.24,65.63a2,2,0,0,0-2.77.55l-5,7.45a2,2,0,1,0,3.32,2.23l5-7.45A2,2,0,0,0,76.24,65.63Z" />
</svg>