<svg xmlns="http://www.w3.org/2000/svg" xmlns:xlink="http://www.w3.org/1999/xlink" version="1.1" x="0px" y="0px"
    viewBox="0 0 100 125" enableBackground="new 0 0 100 100" xml:space="preserve">
    <g display="none">
        <path display="inline" stroke="#ffffff" stroke-width="4" stroke-miterlimit="10"
            d="M90,35.5   C90,25.835,82.165,18,72.5,18c-0.186,0-0.365,0.022-0.549,0.028C67.708,10.266,59.469,5,50,5c-11.394,0-21.001,7.626-24.014,18.05   C25.659,23.028,25.333,23,25,23c-8.284,0-15,6.716-15,15s6.716,15,15,15c0.755,0,1.491-0.074,2.216-0.182   C29.853,57.12,34.584,60,40,60c3.847,0,7.345-1.461,10-3.842C52.655,58.539,56.153,60,60,60c5.343,0,10.021-2.803,12.679-7.009   C82.26,52.894,90,45.105,90,35.5z" />
        <g display="inline">
            <path stroke="#ffffff" stroke-width="4" stroke-miterlimit="10"
                d="M10,68c4.999,0,4.999,4,9.998,4    c4.998,0,4.998-4,9.996-4c4.998,0,4.998,4,9.996,4c4.999,0,4.999-4,9.998-4c5.001,0,5.001,4,10.002,4c4.999,0,4.999-4,9.999-4    c5.003,0,5.003,4,10.006,4S84.997,68,90,68" />
        </g>
        <g display="inline">
            <path stroke="#ffffff" stroke-width="4" stroke-miterlimit="10"
                d="M10,78c4.999,0,4.999,4,9.998,4    c4.998,0,4.998-4,9.996-4c4.998,0,4.998,4,9.996,4c4.999,0,4.999-4,9.998-4c5.001,0,5.001,4,10.002,4c4.999,0,4.999-4,9.999-4    c5.003,0,5.003,4,10.006,4S84.997,78,90,78" />
        </g>
        <g display="inline">
            <path stroke="#ffffff" stroke-width="4" stroke-miterlimit="10"
                d="M10,88c4.999,0,4.999,4,9.998,4    c4.998,0,4.998-4,9.996-4c4.998,0,4.998,4,9.996,4c4.999,0,4.999-4,9.998-4c5.001,0,5.001,4,10.002,4c4.999,0,4.999-4,9.999-4    c5.003,0,5.003,4,10.006,4S84.997,88,90,88" />
        </g>
    </g>
    <g display="none">
        <g display="inline">
            <path
                d="M25,55c0.4,0,0.807-0.017,1.232-0.052C29.429,59.387,34.485,62,40,62c3.606,0,7.099-1.151,10-3.271    C52.901,60.849,56.394,62,60,62c5.498,0,10.567-2.615,13.767-7.049C83.915,54.292,92,45.781,92,35.5    c0-10.554-8.427-19.176-18.905-19.491C68.21,7.955,59.471,3,50,3c-11.429,0-21.681,7.33-25.457,18.006    C15.379,21.249,8,28.779,8,38C8,47.374,15.626,55,25,55z M25,25c0.222,0,0.439,0.017,0.657,0.032l1.804,0.119l0.446-1.546    C30.733,13.828,39.818,7,50,7c8.416,0,16.154,4.593,20.195,11.987l0.59,1.079l1.229-0.039c0.104-0.003,0.206-0.01,0.308-0.017    C72.381,20.006,72.439,20,72.5,20C81.047,20,88,26.953,88,35.5c0,8.456-6.882,15.406-15.342,15.491l-1.089,0.011l-0.581,0.921    C68.584,55.728,64.477,58,60,58c-3.192,0-6.27-1.183-8.665-3.331L50,53.472l-1.335,1.197C46.27,56.817,43.192,58,40,58    c-4.547,0-8.689-2.328-11.078-6.227l-0.691-1.127l-1.308,0.195C26.189,50.949,25.578,51,25,51c-7.168,0-13-5.832-13-13    S17.832,25,25,25z" />
            <path
                d="M79.994,70c-1.801,0-2.577-0.622-3.754-1.562C74.882,67.352,73.191,66,69.989,66c-3.202,0-4.892,1.352-6.25,2.438    C62.564,69.379,61.788,70,59.99,70c-1.799,0-2.576-0.622-3.752-1.562C54.881,67.352,53.19,66,49.988,66    c-3.201,0-4.891,1.352-6.249,2.438C42.564,69.379,41.788,70,39.99,70c-1.797,0-2.573-0.621-3.748-1.562    C34.885,67.352,33.195,66,29.994,66c-3.201,0-4.891,1.352-6.248,2.438C22.571,69.379,21.795,70,19.998,70    c-1.798,0-2.574-0.621-3.749-1.562C14.891,67.352,13.201,66,10,66v4c1.798,0,2.574,0.621,3.749,1.562    C15.107,72.648,16.797,74,19.998,74c3.201,0,4.891-1.352,6.248-2.438C27.421,70.621,28.197,70,29.994,70    c1.797,0,2.573,0.621,3.748,1.562C35.1,72.648,36.789,74,39.99,74c3.201,0,4.891-1.352,6.249-2.438    C47.414,70.621,48.19,70,49.988,70c1.799,0,2.576,0.622,3.752,1.562C55.098,72.648,56.788,74,59.99,74    c3.201,0,4.891-1.352,6.248-2.438C67.414,70.621,68.19,70,69.989,70c1.8,0,2.576,0.622,3.753,1.562    C75.101,72.648,76.791,74,79.994,74c3.203,0,4.894-1.352,6.252-2.438C87.423,70.622,88.2,70,90,70v-4    c-3.203,0-4.894,1.352-6.252,2.438C82.571,69.378,81.794,70,79.994,70z" />
            <path
                d="M79.994,80c-1.801,0-2.577-0.622-3.754-1.562C74.882,77.352,73.191,76,69.989,76c-3.202,0-4.892,1.352-6.25,2.438    C62.564,79.379,61.788,80,59.99,80c-1.799,0-2.576-0.622-3.752-1.562C54.881,77.352,53.19,76,49.988,76    c-3.201,0-4.891,1.352-6.249,2.438C42.564,79.379,41.788,80,39.99,80c-1.797,0-2.573-0.621-3.748-1.562    C34.885,77.352,33.195,76,29.994,76c-3.201,0-4.891,1.352-6.248,2.438C22.571,79.379,21.795,80,19.998,80    c-1.798,0-2.574-0.621-3.749-1.562C14.891,77.352,13.201,76,10,76v4c1.798,0,2.574,0.621,3.749,1.562    C15.107,82.648,16.797,84,19.998,84c3.201,0,4.891-1.352,6.248-2.438C27.421,80.621,28.197,80,29.994,80    c1.797,0,2.573,0.621,3.748,1.562C35.1,82.648,36.789,84,39.99,84c3.201,0,4.891-1.352,6.249-2.438    C47.414,80.621,48.19,80,49.988,80c1.799,0,2.576,0.622,3.752,1.562C55.098,82.648,56.788,84,59.99,84    c3.201,0,4.891-1.352,6.248-2.438C67.414,80.621,68.19,80,69.989,80c1.8,0,2.576,0.622,3.753,1.562    C75.101,82.648,76.791,84,79.994,84c3.203,0,4.894-1.352,6.252-2.438C87.423,80.622,88.2,80,90,80v-4    c-3.203,0-4.894,1.352-6.252,2.438C82.571,79.378,81.794,80,79.994,80z" />
            <path
                d="M79.994,90c-1.801,0-2.577-0.622-3.754-1.562C74.882,87.352,73.191,86,69.989,86c-3.202,0-4.892,1.352-6.25,2.438    C62.564,89.379,61.788,90,59.99,90c-1.799,0-2.576-0.622-3.752-1.562C54.881,87.352,53.19,86,49.988,86    c-3.201,0-4.891,1.352-6.249,2.438C42.564,89.379,41.788,90,39.99,90c-1.797,0-2.573-0.621-3.748-1.562    C34.885,87.352,33.195,86,29.994,86c-3.201,0-4.891,1.352-6.248,2.438C22.571,89.379,21.795,90,19.998,90    c-1.798,0-2.574-0.621-3.749-1.562C14.891,87.352,13.201,86,10,86v4c1.798,0,2.574,0.621,3.749,1.562    C15.107,92.648,16.797,94,19.998,94c3.201,0,4.891-1.352,6.248-2.438C27.421,90.621,28.197,90,29.994,90    c1.797,0,2.573,0.621,3.748,1.562C35.1,92.648,36.789,94,39.99,94c3.201,0,4.891-1.352,6.249-2.438    C47.414,90.621,48.19,90,49.988,90c1.799,0,2.576,0.622,3.752,1.562C55.098,92.648,56.788,94,59.99,94    c3.201,0,4.891-1.352,6.248-2.438C67.414,90.621,68.19,90,69.989,90c1.8,0,2.576,0.622,3.753,1.562    C75.101,92.648,76.791,94,79.994,94c3.203,0,4.894-1.352,6.252-2.438C87.423,90.622,88.2,90,90,90v-4    c-3.203,0-4.894,1.352-6.252,2.438C82.571,89.378,81.794,90,79.994,90z" />
        </g>
    </g>
    <g>
        <g>
            <path fill="#ffffff"
                d="M25,55c0.399,0,0.805-0.018,1.232-0.053C29.429,59.387,34.485,62,40,62c3.606,0,7.099-1.151,10-3.271    C52.901,60.849,56.394,62,60,62c5.498,0,10.568-2.615,13.768-7.049C83.915,54.291,92,45.78,92,35.5    c0-10.554-8.427-19.176-18.905-19.491C68.21,7.954,59.471,3,50,3c-11.429,0-21.681,7.329-25.457,18.006    C15.379,21.249,8,28.779,8,38C8,47.374,15.626,55,25,55z" />
            <path fill="#ffffff"
                d="M79.994,70c-1.801,0-2.577-0.621-3.754-1.562C74.882,67.352,73.191,66,69.989,66s-4.892,1.353-6.25,2.438    C62.564,69.379,61.788,70,59.99,70c-1.799,0-2.576-0.621-3.752-1.562C54.881,67.352,53.19,66,49.988,66    c-3.201,0-4.891,1.352-6.249,2.438C42.564,69.379,41.788,70,39.99,70c-1.797,0-2.573-0.621-3.748-1.562    C34.885,67.353,33.195,66,29.994,66s-4.891,1.353-6.248,2.438C22.571,69.379,21.795,70,19.998,70    c-1.798,0-2.574-0.621-3.749-1.562C14.891,67.352,13.201,66,10,66v4c1.798,0,2.574,0.621,3.749,1.562    C15.107,72.648,16.797,74,19.998,74s4.891-1.353,6.248-2.438C27.421,70.621,28.197,70,29.994,70s2.573,0.621,3.748,1.562    C35.1,72.647,36.789,74,39.99,74s4.891-1.352,6.249-2.438C47.414,70.621,48.19,70,49.988,70c1.799,0,2.576,0.621,3.752,1.562    C55.098,72.648,56.788,74,59.99,74c3.201,0,4.891-1.352,6.248-2.438C67.414,70.621,68.19,70,69.989,70    c1.8,0,2.576,0.621,3.753,1.562C75.101,72.648,76.791,74,79.994,74s4.894-1.352,6.252-2.438C87.423,70.621,88.2,70,90,70v-4    c-3.203,0-4.894,1.352-6.252,2.438C82.571,69.379,81.794,70,79.994,70z" />
            <path fill="#ffffff"
                d="M79.994,80c-1.801,0-2.577-0.621-3.754-1.562C74.882,77.352,73.191,76,69.989,76s-4.892,1.353-6.25,2.438    C62.564,79.379,61.788,80,59.99,80c-1.799,0-2.576-0.621-3.752-1.562C54.881,77.352,53.19,76,49.988,76    c-3.201,0-4.891,1.352-6.249,2.438C42.564,79.379,41.788,80,39.99,80c-1.797,0-2.573-0.621-3.748-1.562    C34.885,77.353,33.195,76,29.994,76s-4.891,1.353-6.248,2.438C22.571,79.379,21.795,80,19.998,80    c-1.798,0-2.574-0.621-3.749-1.562C14.891,77.352,13.201,76,10,76v4c1.798,0,2.574,0.621,3.749,1.562    C15.107,82.648,16.797,84,19.998,84s4.891-1.353,6.248-2.438C27.421,80.621,28.197,80,29.994,80s2.573,0.621,3.748,1.562    C35.1,82.647,36.789,84,39.99,84s4.891-1.352,6.249-2.438C47.414,80.621,48.19,80,49.988,80c1.799,0,2.576,0.621,3.752,1.562    C55.098,82.648,56.788,84,59.99,84c3.201,0,4.891-1.352,6.248-2.438C67.414,80.621,68.19,80,69.989,80    c1.8,0,2.576,0.621,3.753,1.562C75.101,82.648,76.791,84,79.994,84s4.894-1.352,6.252-2.438C87.423,80.621,88.2,80,90,80v-4    c-3.203,0-4.894,1.352-6.252,2.438C82.571,79.379,81.794,80,79.994,80z" />
            <path fill="#ffffff"
                d="M79.994,90c-1.801,0-2.577-0.621-3.754-1.562C74.882,87.352,73.191,86,69.989,86s-4.892,1.353-6.25,2.438    C62.564,89.379,61.788,90,59.99,90c-1.799,0-2.576-0.621-3.752-1.562C54.881,87.352,53.19,86,49.988,86    c-3.201,0-4.891,1.352-6.249,2.438C42.564,89.379,41.788,90,39.99,90c-1.797,0-2.573-0.621-3.748-1.562    C34.885,87.353,33.195,86,29.994,86s-4.891,1.353-6.248,2.438C22.571,89.379,21.795,90,19.998,90    c-1.798,0-2.574-0.621-3.749-1.562C14.891,87.352,13.201,86,10,86v4c1.798,0,2.574,0.621,3.749,1.562    C15.107,92.648,16.797,94,19.998,94s4.891-1.353,6.248-2.438C27.421,90.621,28.197,90,29.994,90s2.573,0.621,3.748,1.562    C35.1,92.647,36.789,94,39.99,94s4.891-1.352,6.249-2.438C47.414,90.621,48.19,90,49.988,90c1.799,0,2.576,0.621,3.752,1.562    C55.098,92.648,56.788,94,59.99,94c3.201,0,4.891-1.352,6.248-2.438C67.414,90.621,68.19,90,69.989,90    c1.8,0,2.576,0.621,3.753,1.562C75.101,92.648,76.791,94,79.994,94s4.894-1.352,6.252-2.438C87.423,90.621,88.2,90,90,90v-4    c-3.203,0-4.894,1.352-6.252,2.438C82.571,89.379,81.794,90,79.994,90z" />
        </g>
    </g>
</svg>