<svg xmlns="http://www.w3.org/2000/svg" viewBox="0 0 64 80" x="0px" y="0px">
    <title>snow, weather, weather forecast, cloud</title>
    <g data-name="Snow">
        <path fill="#fff"
            d="M47,16a11.8622,11.8622,0,0,0-3.81.6172A15.9938,15.9938,0,0,0,13.125,22.042,9,9,0,0,0,14,40H47a12,12,0,0,0,0-24Z" />
        <path fill="snow"
            d="M21,46H19.4141l1.1211-1.1211a1,1,0,1,0-1.4141-1.4141L18,44.5859V43a1,1,0,0,0-2,0v1.5859l-1.1211-1.1211a1,1,0,1,0-1.4141,1.4141L14.5859,46H13a1,1,0,0,0,0,2h1.5859l-1.1211,1.1211a1,1,0,1,0,1.4141,1.4141L16,49.4141V51a1,1,0,0,0,2,0V49.4141l1.1211,1.1211a1,1,0,1,0,1.4141-1.4141L19.4141,48H21a1,1,0,0,0,0-2Z" />
        <path fill="snow"
            d="M51,46H49.4141l1.1211-1.1211a1,1,0,0,0-1.4141-1.4141L48,44.5859V43a1,1,0,0,0-2,0v1.5859l-1.1211-1.1211a1,1,0,0,0-1.4141,1.4141L44.5859,46H43a1,1,0,0,0,0,2h1.5859l-1.1211,1.1211a1,1,0,1,0,1.4141,1.4141L46,49.4141V51a1,1,0,0,0,2,0V49.4141l1.1211,1.1211a1,1,0,0,0,1.4141-1.4141L49.4141,48H51a1,1,0,0,0,0-2Z" />
        <path fill="snow"
            d="M36,50H34.4141l1.1211-1.1211a1,1,0,0,0-1.4141-1.4141L33,48.5859V47a1,1,0,0,0-2,0v1.5859l-1.1211-1.1211a1,1,0,1,0-1.4141,1.4141L29.5859,50H28a1,1,0,0,0,0,2h1.5859l-1.1211,1.1211a1,1,0,1,0,1.4141,1.4141L31,53.4141V55a1,1,0,0,0,2,0V53.4141l1.1211,1.1211a1,1,0,0,0,1.4141-1.4141L34.4141,52H36a1,1,0,0,0,0-2Z" />
    </g>
</svg>