<svg xmlns="http://www.w3.org/2000/svg" data-name="Слой 1" viewBox="0 0 100 125" x="0px" y="0px">
    <title>30-01-01</title>
    <g>
        <path fill="#fff"
            d="M17.95466,21.90818c0.09738-5.7462,3.92782-8.5286,8.14314-10.50795,4.52666-2.12555,9.03422-1.2325,12.94127,2.20742,1.998-2.79722,5.02052-3.92193,7.89872-4.57027,3.28187-.73924,6.86492-0.94994,10.01694,1.11211a19.57507,19.57507,0,0,0,2.78044,1.57466,1.50529,1.50529,0,0,0,1.34457-.18535,11.68729,11.68729,0,0,1,6.64948-3.09527,7.84824,7.84824,0,0,1,4.09369.73386,30.835,30.835,0,0,1,5.99924,3.486,11.60941,11.60941,0,0,1,2.51274,3.53487A1.74913,1.74913,0,0,0,82.33128,17.222a10.78089,10.78089,0,0,1,8.39011,2.55514,13.9866,13.9866,0,0,1,5.76176,11.02958c0.13948,6.80487-1.6388,10.3036-8.20483,13.20682-2.81053,1.24269-6.05769,1.498-9.35248,2.25872-0.03224,3.98872-2.3914,7.11994-6.335,9.68555,1.34464-.28411,2.30523-0.53391,3.28162-0.67305a6.36478,6.36478,0,0,1,1.4576.12161,4.89787,4.89787,0,0,1-.60327,1.52766c-1.001,1.13482-2.188,2.10877-3.15913,3.26582-1.78477,2.12649-3.47588,4.332-5.18155,6.52375a4.33439,4.33439,0,0,0-.43239,1.03436c2.181-.51676,4.24525-1.00582,6.30947-1.49489l0.38757,0.51183a8.10756,8.10756,0,0,1-.62425,1.60315c-2.16754,3.30611-4.32532,6.62063-6.582,9.86584-2.99163,4.30215-5.52808,8.985-9.883,12.18369A13.24886,13.24886,0,0,1,55.869,91.562a1.95244,1.95244,0,0,1-.92009-0.07738,2.48885,2.48885,0,0,1,.16173-0.90553c2.12057-3.288,4.19944-6.60628,6.42858-9.82,2.07817-2.996,4.3234-5.87618,6.49429-8.80791a3.07508,3.07508,0,0,0,.66928-1.40995,23.497,23.497,0,0,1-2.58361.8362,42.47827,42.47827,0,0,1-4.338.66028,1.24205,1.24205,0,0,1-1.04294-.54841,1.68545,1.68545,0,0,1,.3765-1.28164c2.8982-3.36,5.83795-6.68409,8.76247-10.0214,0.18673-.21305.34261-0.45319,0.62333-0.82837a6.49227,6.49227,0,0,1-2.33412-.34449c-0.44541-.26548-0.542-1.11632-0.87964-1.908a28.59159,28.59159,0,0,1-5.76054-.7139c-1.942-.61037-3.66662-1.91223-5.64134-2.99587a10.08059,10.08059,0,0,1-5.72181,5.2392c-2.88015,1.05808-4.25287,3.5847-6.42838,5.30031l0.14369,0.43327c1.1577-.10382,2.31484-0.21452,3.47336-0.30855a7.60537,7.60537,0,0,1,1.74072-.06646,1.93226,1.93226,0,0,1,1.26557.60116,2.17585,2.17585,0,0,1-.59151,1.50053c-1.31762,1.30466-2.73831,2.50447-4.097,3.76869-0.62474.58127-1.19586,1.22018-1.79128,1.83293l0.18018,0.46607c1.94332-.35079,3.88663-0.70154,5.97314-1.07813a7.095,7.095,0,0,1-1.6623,4.68109A86.29652,86.29652,0,0,1,36.10638,88.2688a2.85426,2.85426,0,0,1-.80921.61921,7.81759,7.81759,0,0,1-1.40249.21948,3.23509,3.23509,0,0,1,.2529-1.41484c1.734-2.10419,3.58559-4.11156,5.31784-6.21713,1.50667-1.8314,2.90682-3.75046,4.519-5.84506-2.41375.02528-4.33164,1.81176-6.7892,0.64511,2.6668-2.97264,5.18327-5.77766,7.936-8.8461-1.42863-.125-2.56492-0.17082-3.68411-0.3341-1.92775-.28126-2.18222-0.79362-1.09358-2.39033,0.90332-1.32488,1.958-2.54644,2.94056-3.8176,0.28685-.37108.55641-0.75551,0.98968-1.34614-4.78184-.821-9.01343-2.34266-12.68809-5.46663a14.49948,14.49948,0,0,1-9.04094,2.93963c-0.66488.018-1.30894,0.80471-1.96261,1.23685l0.10165,0.547,4.19679,0.0378,0.23167,0.53229c-1.81122,3.52911-5.01632,6.032-7.32988,9.19125l0.17826,0.40932c1.25278-.201,2.50085-0.44511,3.76062-0.58219a7.03115,7.03115,0,0,1,1.5972.18569,5.08045,5.08045,0,0,1-.708,1.49414C19.19449,73.52724,15.7,76.92028,12.27685,80.38376c-2.45314,2.482-4.8063,5.06292-7.26356,7.54064a3.49841,3.49841,0,0,1-1.50391.42022,3.81988,3.81988,0,0,1,.38143-1.33331c3.81454-4.85619,7.66509-9.684,11.63472-14.67938-0.66618-.04392-1.27063-0.04868-1.86452-0.13032-1.1577-.15915-1.44529-0.784-0.70271-1.67639,1.86859-2.24557,3.79324-4.44451,5.685-6.671a7.72289,7.72289,0,0,0,.564-0.96566c-1.10374-.1163-2.04491-0.16883-2.96632-0.33266a5.81874,5.81874,0,0,1-1.28311-.56111,4.7191,4.7191,0,0,1,.59332-1.24267c1.20911-1.32144,2.477-2.589,3.94272-4.10318a19,19,0,0,0-2.533-.9383c-5.18881-1.06539-7.57442-6.98874-5.36283-11.65044,0.10289-.21689.19539-0.43871,0.275-0.61825C7.70672,40.76258,5.8234,36.71066,5.14644,32.1312c-0.362-2.449,2.177-7.32836,5.82056-8.82061A15.67112,15.67112,0,0,1,17.95466,21.90818Zm21.18988-5.254A10.68963,10.68963,0,0,0,37.958,15.26951a14.9895,14.9895,0,0,0-3.46114-2.60105C29.14857,10.48758,23.16037,13.6737,21.03269,17.259c-0.96469,1.62553-2.48545,3.56461-.88623,5.79167a1.23525,1.23525,0,0,1-.33445,1.00152,0.94412,0.94412,0,0,1-.88226.17063c-2.25466-1.21166-4.43194-.88842-6.70616.03431C8.824,25.63648,6.42144,29.19882,7.16049,32.73843a12.896,12.896,0,0,0,5.94359,8.67532c1.01855,0.62259,1.2462.98243,0.6238,2.24673-2.24747,4.56526-1.56121,9.28654,4.27065,10.93638a19.61462,19.61462,0,0,0,9.68753.03558c1.65933-.36105,3.1451-0.98982,3.47367-2.993a1.17454,1.17454,0,0,1,.89254-0.72321,1.18026,1.18026,0,0,1,.84144.77839c0.27946,1.90465,1.69225,2.82766,3.15578,3.58019,4.92663,2.53316,9.99418,1.93217,15.02906.37433a5.31044,5.31044,0,0,0,3.07029-4.427,6.16973,6.16973,0,0,1,.28529-1.66831,9.81633,9.81633,0,0,1,2.13479.95037,36.9001,36.9001,0,0,0,3.096,2.71732c2.73683,1.62494,5.86108,1.81818,8.91931,1.55706a13.15128,13.15128,0,0,0,5.22469-1.57121c2.84873-1.61408,2.93718-4.76346,3.346-7.567,0.31181-2.13829.96-2.68913,3.16513-2.20827a17.56838,17.56838,0,0,0,3.60311.40336c2.59714,0.017,4.55463-1.38377,6.49576-2.95553,4.49514-3.63979,5.46027-8.99648,3.74247-14.10784-0.93746-2.78936-3.09526-4.64073-5.26629-6.32253-1.86182-1.44224-4.09292-2.24981-6.582-1.05081a2.47753,2.47753,0,0,1-3.1919-1.23082,16.3728,16.3728,0,0,0-7.22113-6.77935,10.45215,10.45215,0,0,0-6.19851-.96938c-2.43831.41191-3.704,1.90848-4.64339,3.96363a1.37822,1.37822,0,0,1-.96625.73215,1.35076,1.35076,0,0,1-.82048-0.81941,5.58468,5.58468,0,0,0-4.48046-3.355,31.85077,31.85077,0,0,0-8.26966.10007c-2.8981.33749-5.41208,1.57795-6.56434,4.6021A4.75841,4.75841,0,0,1,39.14455,16.65414Z" />
        <path fill="#000"
            d="M79.45658,31.35358a1.60371,1.60371,0,0,1-.21664.3734c-1.11825,1.0924-2.41737,2.11591-1.07488,4.06806l-0.4905.01221-0.908-1.45157c-2.29421,1.10632-2.7797,2.93417-1.85241,5.349l-0.643.03621q-0.42933-1.01575-.85876-2.03179c-1.99822.81836-2.24372,1.73163-1.83881,6.20449a16.5145,16.5145,0,0,1-.63476-1.55676c-0.17891-.59542-0.2685-1.21771-0.42816-1.97655-0.72076.61065-1.34,1.13528-1.95916,1.65986l-0.32407-.2412c0.70536-1.24019,2.78939-1.991,1.57728-4.01881l-1.53822,1.12639-0.2981-.29948A9.16847,9.16847,0,0,0,69.36416,36.932a8.16253,8.16253,0,0,0,.38084-2.15311c-0.81563.25731-1.21151,0.38218-1.6074,0.50705,2.1574-2.07457-.16443-4.10208-0.11176-6.11634L68.459,29.0373c0.45068,1.15753.90137,2.315,1.39429,3.581,1.542-1.28013,3.34791-2.24411,2.43446-4.8526,0.84252,0.52708,1.3775.86174,1.91245,1.19629-0.48614.90523-.89239,1.81622-0.25692,2.83358,1.97006-.95232,2.33208-1.92127,1.33417-3.51362q-0.54867.351-1.09706,0.70183c0.41723-1.02493.83446-2.04986,1.40789-3.45845,0.454,1.25493.85507,2.36374,1.28318,3.54723,1.8165-.20633,2.03686-1.80405,2.45676-3.22288l0.406,0.1174c0.12229,0.77259.28392,1.54145,0.35724,2.31866,0.09907,1.05.47789,1.59219,1.79172,1.0244-1.889,1.50027-.4276,3.17113-0.42347,4.80646-0.72035-.97676-1.37189-1.8602-2.02335-2.74367-0.02563-.85909-0.05131-1.71811-0.08016-2.68266-2.46916.9208-2.95156,2.06706-1.786,3.69114C78.19483,32.04106,78.82571,31.69734,79.45658,31.35358ZM71.79775,34.806a8.02222,8.02222,0,0,1-.64344,1.117,1.90147,1.90147,0,0,0,.03629,2.58318c2.47715-1.94712,2.65125-2.39136,1.74983-4.47191-0.3964.26972-.7798,0.53056-1.16313,0.7914a8.59477,8.59477,0,0,1,.67058-1.10031,1.99933,1.99933,0,0,0,.08858-2.51009c-2.3685,2.081-2.95676,2.53955-2.02813,4.17021Q71.15,35.09711,71.79775,34.806Zm2.48355,0.58253c2.43455-1.62261,2.7847-2.52824,1.66546-4.12459C73.99982,32.48,73.65865,33.28878,74.2813,35.38857Z" />
    </g>
</svg>